<?xml version="1.0" encoding="UTF-8"?>
<!-- Generated by Pixelmator Pro 2.4.5 -->
<svg width="50" height="50" viewBox="0 0 50 50" xmlns="http://www.w3.org/2000/svg" xmlns:xlink="http://www.w3.org/1999/xlink">
    <path id="path1" fill="none" stroke="#000000" stroke-width="3.125" stroke-linecap="round" stroke-linejoin="round" d="M 42.1875 10.9375 L 42.1875 9.375 C 42.179989 6.789284 40.085716 4.695011 37.5 4.6875 L 6.25 4.6875 C 3.664282 4.695011 1.570009 6.789284 1.5625 9.375 L 1.5625 34.375 C 1.570009 36.960716 3.664282 39.054989 6.25 39.0625 L 7.8125 39.0625"/>
    <path id="path2" fill="none" stroke="#000000" stroke-width="3.125" stroke-linecap="round" stroke-linejoin="round" d="M 13.866212 12.5 L 43.946289 12.5 C 46.426716 12.5 48.4375 14.510784 48.4375 16.991211 L 48.4375 40.821289 C 48.4375 43.301716 46.426716 45.3125 43.946289 45.3125 L 13.866212 45.3125 C 11.385783 45.3125 9.375 43.301716 9.375 40.821289 L 9.375 16.991211 C 9.375 14.510784 11.385783 12.5 13.866212 12.5 Z"/>
    <path id="path3" fill="none" stroke="#000000" stroke-width="3.125" stroke-linecap="round" stroke-linejoin="round" d="M 39.422852 21.449221 C 39.422852 23.096905 38.077518 24.432617 36.417969 24.432617 C 34.758419 24.432617 33.413086 23.096905 33.413086 21.449221 C 33.413086 19.801533 34.758419 18.46582 36.417969 18.46582 C 38.077518 18.46582 39.422852 19.801533 39.422852 21.449221 Z"/>
    <path id="path4" fill="none" stroke="#000000" stroke-width="3.125" stroke-linecap="round" stroke-linejoin="round" d="M 33.413086 36.344727 L 24.902344 27.908203 C 23.77351 26.792902 21.974117 26.741283 20.783203 27.790039 L 9.375 37.855469 M 25.901369 45.3125 L 37.482422 33.81543 C 38.586201 32.726864 40.333958 32.648033 41.53125 33.632813 L 48.4375 39.34668"/>
</svg>
